# xmcd
#
# Track frame offsets:
#	150
#	29207
#	47370
#	72555
#	88275
#	102787
#	116475
#	127137
#	142570
#	164987
#	185150
#	199937
#	218000
#	240362
#	260660
#	283637
#	293412
#
# Disc length: 4092 seconds
#
# Revision: 4
# Processed by: cddbd v1.5.2PL0 Copyright (c) Steve Scherf et al.
# Submitted via: CDex 1.51
#
DISCID=0a0ffa11
DTITLE=Various Artist - Tribute to ... David Bowie
DYEAR=1997
DGENRE=Pop 80s - New Wave
TTITLE0=Blondie - Heroes
TTITLE1=Flying Pickets, (The) - Space Oddity
TTITLE2=Midge Ure - the Man Who Sold the World
TTITLE3=Danny Wilson - Kooks
TTITLE4=Bauhaus - Ziggy Stardust
TTITLE5=Tony Hadley - Rock 'n' Roll Suicide
TTITLE6=Pole Cats, (The) - John I'm Only Dancing
TTITLE7=Mott the Hoople - All the Young Dudes
TTITLE8=Lulu - Watch That Man
TTITLE9=Sigue Sigue Sputnik - Rebel, Rebel
TTITLE10=Duran Duran - Fame
TTITLE11=Billy Mackenzie - Secret Life of Arabia
TTITLE12=Susannah Hoffs - Boys Keep Swinging
TTITLE13=Tears for Fears - Ashes to Ashes
TTITLE14=Iggy Pop - China Girl
TTITLE15=Beatstalkers - Silver Treetop School for Boys
TTITLE16=Oscar - Over the Wall We Go
EXTD=YEAR: 1997
EXTT0=
EXTT1=
EXTT2=
EXTT3=
EXTT4=
EXTT5=
EXTT6=
EXTT7=
EXTT8=
EXTT9=
EXTT10=
EXTT11=
EXTT12=
EXTT13=
EXTT14=
EXTT15=
EXTT16=
PLAYORDER=
